<?xml version="1.0" encoding="UTF-8"?>
<svg id="Layer_1" data-name="Layer 1" xmlns="http://www.w3.org/2000/svg" viewBox="0 0 2069.69 465.96">
  <defs>
    <style>
      .cls-1 {
        fill: #ea891f;
      }

      .cls-2 {
        fill: #151718;
      }
    </style>
  </defs>
  <rect class="cls-1" x="1352.75" width="716.94" height="465.96" rx="63.99" ry="63.99"/>
  <g>
    <path class="cls-2" d="m0,333.39V110.76h153v39H45.87v56.48h99.21v37.95H45.87v89.2H0Z"/>
    <path class="cls-2" d="m173.92,333.39v-159.88h42.58v27.49h.75c2.89-9.76,7.55-17.01,13.97-21.74,6.42-4.73,14.72-7.1,24.88-7.1,2.59,0,5.01.07,7.25.22s4.26.33,6.05.52v37.95c-1.69-.2-4.36-.42-7.99-.67-3.64-.25-7.3-.37-10.98-.37-6.18,0-11.73,1.4-16.66,4.18-4.93,2.79-8.79,6.85-11.58,12.18-2.79,5.33-4.18,11.88-4.18,19.65v87.56h-44.08Z"/>
    <path class="cls-2" d="m361.15,336.98c-16.14,0-30.23-3.49-42.29-10.46-12.05-6.97-21.44-16.68-28.17-29.14-6.72-12.45-10.09-26.99-10.09-43.63s3.36-31.35,10.09-43.85c6.72-12.5,16.11-22.24,28.17-29.21,12.05-6.97,26.15-10.46,42.29-10.46s30.23,3.49,42.29,10.46c12.05,6.97,21.44,16.71,28.17,29.21,6.72,12.5,10.09,27.12,10.09,43.85s-3.36,31.18-10.09,43.63c-6.72,12.45-16.11,22.17-28.17,29.14-12.05,6.97-26.15,10.46-42.29,10.46Zm0-35.71c7.37,0,13.72-1.94,19.05-5.83,5.33-3.88,9.46-9.39,12.4-16.51,2.94-7.12,4.41-15.51,4.41-25.18s-1.47-18.35-4.41-25.48c-2.94-7.12-7.07-12.63-12.4-16.51-5.33-3.88-11.68-5.83-19.05-5.83s-13.6,1.94-18.98,5.83c-5.38,3.88-9.54,9.39-12.48,16.51-2.94,7.12-4.41,15.61-4.41,25.48s1.47,18.06,4.41,25.18c2.94,7.12,7.1,12.63,12.48,16.51,5.38,3.88,11.7,5.83,18.98,5.83Z"/>
    <path class="cls-2" d="m511.61,243.74v89.65h-44.08v-159.88h43.03l.15,41.24h-6.43c4.88-13.94,11.9-24.8,21.07-32.57,9.16-7.77,20.87-11.65,35.11-11.65,11.36,0,21.22,2.44,29.58,7.32,8.37,4.88,14.84,11.98,19.42,21.29,4.58,9.32,6.87,20.6,6.87,33.84v100.41h-44.08v-92.49c0-10.46-2.57-18.5-7.7-24.13-5.13-5.63-12.33-8.44-21.59-8.44-6.18,0-11.61,1.3-16.29,3.88-4.68,2.59-8.37,6.48-11.06,11.66-2.69,5.18-4.03,11.8-4.03,19.87Z"/>
    <path class="cls-2" d="m738.13,173.51v34.52h-102.65v-34.52h102.65Zm-76.35-42.29h44.23v153.45c0,5.28,1.09,8.99,3.29,11.13,2.19,2.14,6.22,3.21,12.1,3.21,2.29,0,5.13-.02,8.52-.08,3.39-.05,5.98-.12,7.77-.22l1.34,34.37c-3.09.3-7.05.5-11.88.6-4.83.1-9.64.15-14.42.15-17.23,0-30.03-3.54-38.4-10.61-8.37-7.07-12.55-17.88-12.55-32.42v-159.58Z"/>
    <path class="cls-2" d="m832.26,336.98c-16.24,0-30.33-3.54-42.29-10.61-11.95-7.07-21.19-16.86-27.72-29.36-6.53-12.5-9.79-26.92-9.79-43.26s3.31-30.78,9.94-43.33c6.62-12.55,15.79-22.39,27.49-29.51,11.7-7.12,25.27-10.68,40.72-10.68,11.45,0,21.91,1.94,31.38,5.83,9.46,3.88,17.65,9.44,24.58,16.66,6.92,7.22,12.28,15.89,16.06,26,3.78,10.11,5.68,21.44,5.68,33.99v11.95h-139.56v-28.09h118.19l-20.02,6.87c0-8.17-1.42-15.19-4.26-21.07-2.84-5.88-6.9-10.43-12.18-13.67-5.28-3.24-11.65-4.86-19.13-4.86s-13.72,1.62-19.05,4.86c-5.33,3.24-9.44,7.77-12.33,13.6-2.89,5.83-4.33,12.73-4.33,20.69v19.42c0,8.47,1.49,15.79,4.48,21.96,2.99,6.18,7.32,10.93,13,14.27,5.68,3.34,12.45,5.01,20.32,5.01,5.58,0,10.58-.8,15.02-2.39,4.43-1.59,8.17-3.91,11.21-6.95,3.04-3.04,5.25-6.6,6.65-10.68l40.19,1.79c-2.09,10.16-6.57,19.1-13.45,26.82-6.87,7.72-15.54,13.77-26,18.15-10.46,4.38-22.06,6.57-34.81,6.57Z"/>
    <path class="cls-2" d="m977.65,243.74v89.65h-44.08v-159.88h43.03l.15,41.24h-6.43c4.88-13.94,11.9-24.8,21.07-32.57,9.16-7.77,20.87-11.65,35.11-11.65,11.36,0,21.22,2.44,29.58,7.32,8.37,4.88,14.84,11.98,19.42,21.29,4.58,9.32,6.87,20.6,6.87,33.84v100.41h-44.08v-92.49c0-10.46-2.57-18.5-7.7-24.13-5.13-5.63-12.33-8.44-21.59-8.44-6.18,0-11.61,1.3-16.29,3.88-4.68,2.59-8.37,6.48-11.06,11.66-2.69,5.18-4.03,11.8-4.03,19.87Z"/>
    <path class="cls-2" d="m1176.52,336.53c-13.55,0-25.45-3.38-35.71-10.16-10.26-6.77-18.25-16.38-23.98-28.84-5.73-12.45-8.59-27.14-8.59-44.08s2.91-31.45,8.74-43.85c5.83-12.4,13.87-22.01,24.13-28.84,10.26-6.82,21.96-10.24,35.11-10.24,7.37,0,14.02,1.07,19.95,3.21,5.93,2.14,11.11,5.16,15.54,9.04,4.43,3.88,8.14,8.57,11.13,14.05h.6v-86.07h44.08v222.63h-43.48v-24.8h-.6c-2.89,5.78-6.57,10.76-11.06,14.94s-9.74,7.4-15.76,9.64c-6.03,2.24-12.73,3.36-20.1,3.36Zm11.8-35.86c7.57,0,14.09-1.94,19.57-5.83,5.48-3.88,9.74-9.39,12.78-16.51,3.04-7.12,4.56-15.46,4.56-25.03s-1.52-17.86-4.56-24.88c-3.04-7.02-7.3-12.48-12.78-16.36-5.48-3.88-12-5.83-19.57-5.83-7.17,0-13.42,1.89-18.75,5.68-5.33,3.79-9.41,9.19-12.25,16.21s-4.26,15.42-4.26,25.18,1.42,18.33,4.26,25.4c2.84,7.07,6.92,12.5,12.25,16.29,5.33,3.79,11.58,5.68,18.75,5.68Z"/>
    <path class="cls-2" d="m1435.47,333.39V110.76h45.87v89.5h95.18v-89.5h45.87v222.63h-45.87v-93.98h-95.18v93.98h-45.87Z"/>
    <path class="cls-2" d="m1712.04,336.38c-11.16,0-20.94-2.44-29.36-7.32-8.42-4.88-14.92-11.98-19.5-21.29-4.58-9.31-6.87-20.54-6.87-33.69v-100.56h44.08v92.49c0,10.46,2.59,18.5,7.77,24.13,5.18,5.63,12.35,8.44,21.52,8.44,6.17,0,11.6-1.27,16.29-3.81,4.68-2.54,8.37-6.45,11.06-11.73,2.69-5.28,4.03-11.9,4.03-19.87v-89.65h44.08v159.88h-43.03l-.15-41.24h6.42c-4.88,13.95-11.9,24.8-21.07,32.57-9.17,7.77-20.92,11.65-35.26,11.65Z"/>
    <path class="cls-2" d="m1929,336.53c-7.37,0-14.07-1.12-20.1-3.36-6.03-2.24-11.28-5.45-15.76-9.64-4.48-4.18-8.17-9.16-11.06-14.94h-.6v24.8h-43.48V110.76h44.08v86.07h.45c3.09-5.48,6.85-10.16,11.28-14.05,4.43-3.88,9.61-6.9,15.54-9.04,5.93-2.14,12.57-3.21,19.95-3.21,13.25,0,24.98,3.41,35.19,10.24,10.21,6.82,18.23,16.44,24.06,28.84,5.83,12.4,8.74,27.02,8.74,43.85s-2.86,31.63-8.59,44.08c-5.73,12.45-13.7,22.06-23.91,28.84-10.21,6.78-22.14,10.16-35.79,10.16Zm-11.95-35.86c7.37,0,13.67-1.89,18.9-5.68,5.23-3.79,9.29-9.21,12.18-16.29,2.89-7.07,4.33-15.54,4.33-25.4s-1.44-18.15-4.33-25.18c-2.89-7.02-6.95-12.42-12.18-16.21-5.23-3.78-11.53-5.68-18.9-5.68s-13.97,1.94-19.5,5.83c-5.53,3.88-9.79,9.34-12.78,16.36s-4.48,15.32-4.48,24.88,1.49,17.91,4.48,25.03c2.99,7.12,7.27,12.63,12.85,16.51,5.58,3.88,12.05,5.83,19.42,5.83Z"/>
  </g>
</svg>